<svg width="140" height="140" viewBox="0 0 140 140" fill="none" xmlns="http://www.w3.org/2000/svg">
<path fill-rule="evenodd" clip-rule="evenodd" d="M70.5283 126.528C101.456 126.528 126.528 101.456 126.528 70.5281C126.528 39.6001 101.456 14.5281 70.5283 14.5281C39.6004 14.5281 14.5283 39.6001 14.5283 70.5281C14.5283 101.456 39.6004 126.528 70.5283 126.528ZM67.4112 50.7037C65.2632 49.2717 62.5014 49.1382 60.2253 50.3564C57.9492 51.5745 56.5283 53.9465 56.5283 56.5281V84.5281C56.5283 87.1097 57.9492 89.4817 60.2253 90.6998C62.5014 91.9179 65.2632 91.7844 67.4112 90.3524L88.4112 76.3524C90.3586 75.0542 91.5283 72.8686 91.5283 70.5281C91.5283 68.1876 90.3586 66.002 88.4112 64.7037L67.4112 50.7037Z" fill="#F2F2F2"/>
</svg>
