<svg width="24" height="24" viewBox="0 0 24 24" fill="none" xmlns="http://www.w3.org/2000/svg">
<path fill-rule="evenodd" clip-rule="evenodd" d="M10.8 2.39999C10.3455 2.39999 9.92993 2.6568 9.72666 3.06334L8.85834 4.79999H4.79998C4.13723 4.79999 3.59998 5.33725 3.59998 5.99999C3.59998 6.66274 4.13723 7.19999 4.79998 7.19999L4.79998 19.2C4.79998 20.5255 5.87449 21.6 7.19998 21.6H16.8C18.1255 21.6 19.2 20.5255 19.2 19.2V7.19999C19.8627 7.19999 20.4 6.66274 20.4 5.99999C20.4 5.33725 19.8627 4.79999 19.2 4.79999H15.1416L14.2733 3.06334C14.07 2.6568 13.6545 2.39999 13.2 2.39999H10.8ZM8.39998 9.59999C8.39998 8.93725 8.93723 8.39999 9.59998 8.39999C10.2627 8.39999 10.8 8.93725 10.8 9.59999V16.8C10.8 17.4627 10.2627 18 9.59998 18C8.93723 18 8.39998 17.4627 8.39998 16.8V9.59999ZM14.4 8.39999C13.7372 8.39999 13.2 8.93725 13.2 9.59999V16.8C13.2 17.4627 13.7372 18 14.4 18C15.0627 18 15.6 17.4627 15.6 16.8V9.59999C15.6 8.93725 15.0627 8.39999 14.4 8.39999Z" fill="white"/>
</svg>
